<svg width="1440" height="63" viewBox="0 0 1440 63" fill="none" xmlns="http://www.w3.org/2000/svg">
<path fill-rule="evenodd" clip-rule="evenodd" d="M-16.2739 14.7771L-16.2739 62.9999L1444 63L1444 15.0592C1443.89 15.7924 1443.73 16.5256 1443.46 17.2024C1443.73 15.7924 1443.78 14.2132 1443.57 12.4647C1441.61 15.5104 1439.77 18.3304 1437.82 19.9097C1425.94 29.4978 1414 25.0422 1409.94 12.6903C1409.88 12.5211 1409.83 12.2955 1409.77 12.1263C1409.72 11.9007 1409.66 11.7315 1409.61 11.5059L1409.72 11.3931L1409.94 11.1111L1410.04 10.9419L1410.1 10.8855C1412.48 8.17826 1416.5 4.2302 1420.73 0.000127665L1416.5 0.000127295C1411.56 5.58382 1405.76 11.7315 1399.74 16.1872C1372.94 36.3787 1361.23 2.76377 1379.07 3.55338L1379.18 3.55338C1383.9 3.55338 1387.7 6.54263 1387.7 10.2651C1387.7 12.5211 1386.23 14.5516 1384.06 15.7924C1399.47 11.6751 1387.48 -3.32753 1373.48 1.07174C1367.73 2.87657 1365.94 10.1523 1368.01 16.582C1366.98 18.0484 1365.89 19.3457 1364.81 20.1917C1352.93 29.7798 1340.99 25.3242 1336.92 12.9723C1336.87 12.8031 1336.82 12.5775 1336.76 12.4083C1336.71 12.1827 1336.65 12.0135 1336.6 11.7879L1336.71 11.6751L1337.14 11.1111L1337.25 10.9419L1337.3 10.8855C1339.69 8.17826 1343.7 4.23019 1347.94 0.000121302L1343.7 0.000120932C1338.77 5.58381 1332.96 11.7315 1326.94 16.1872C1300.15 36.3787 1288.43 2.76376 1306.28 3.55337L1306.39 3.55337C1311.1 3.55338 1314.9 6.54263 1314.9 10.2651C1314.9 12.5211 1313.44 14.5516 1311.27 15.7924C1326.67 11.6751 1314.68 -3.32754 1300.69 1.07173C1295.05 2.82016 1293.26 9.87028 1295.1 16.1308C1293.96 17.7664 1292.77 19.2328 1291.58 20.1917C1279.7 29.7798 1267.76 25.3241 1263.7 12.9723C1263.64 12.8031 1263.59 12.5775 1263.53 12.4083C1263.48 12.1827 1263.43 12.0135 1263.37 11.7879L1263.48 11.6751L1263.91 11.1111L1264.02 10.9419L1264.08 10.8855C1266.46 8.17825 1270.48 4.23019 1274.71 0.0001149L1270.48 0.00011453C1265.54 5.58381 1259.74 11.7315 1253.72 16.1872C1226.92 36.3787 1215.2 2.76375 1233.05 3.55337L1233.16 3.55337C1237.88 3.55337 1241.67 6.54262 1241.67 10.2651C1241.67 12.5211 1240.21 14.5516 1238.04 15.7924C1253.44 11.6751 1241.46 -3.32755 1227.46 1.07172C1221.71 2.87656 1219.92 10.1523 1221.98 16.582C1220.95 18.0484 1219.87 19.3456 1218.78 20.1916C1206.9 29.7798 1194.97 25.3241 1190.9 12.9723C1190.85 12.8031 1190.79 12.5775 1190.74 12.4083C1190.69 12.1827 1190.63 12.0135 1190.58 11.7879L1190.69 11.6751L1190.79 11.5623L1190.9 11.3931L1190.96 11.3367C1193.34 8.62945 1197.36 4.68138 1201.59 0.451311L1197.36 0.451311C1192.42 6.03501 1186.62 12.1827 1180.6 16.6384C1153.8 36.8299 1142.08 3.21495 1159.93 4.00457L1160.04 4.00457C1164.76 4.00457 1168.55 6.99382 1168.55 10.7163C1168.55 12.9723 1167.09 15.0028 1164.92 16.2436C1180.33 12.1263 1168.34 -2.87634 1154.34 1.52293C1148.65 3.32776 1146.86 10.4907 1148.81 16.8076C1147.73 18.3868 1146.64 19.7404 1145.5 20.6429C1133.62 30.231 1121.69 25.7753 1117.62 13.4235C1117.57 13.2543 1117.51 13.0287 1117.46 12.8595C1117.4 12.6339 1117.35 12.4647 1117.29 12.2391L1117.4 12.1263L1117.51 12.0135L1117.62 11.8443L1117.67 11.7879C1120.06 9.08065 1124.08 5.13259 1128.31 0.902515L1124.08 0.902514C1119.14 6.48621 1113.34 12.6339 1107.31 17.0896C1080.52 37.2811 1068.8 3.66615 1086.65 4.45577L1086.76 4.45577C1091.48 4.45577 1095.27 7.44502 1095.27 11.1675C1095.27 13.4235 1093.81 15.454 1091.64 16.6948C1107.04 12.5775 1095.06 -2.42514 1081.06 1.97413C1075.31 3.77896 1073.52 11.0547 1075.58 17.4844C1074.55 18.9508 1073.47 20.248 1072.38 21.0941C1060.5 30.6822 1048.57 26.2265 1044.5 13.8747C1044.45 13.7055 1044.39 13.4799 1044.34 13.3107C1044.28 13.0851 1044.23 12.9159 1044.18 12.6903L1044.28 12.5775L1044.39 12.4647L1044.5 12.2955L1044.56 12.2391C1046.94 9.53186 1050.96 5.58379 1055.19 1.35371L1050.96 1.35371C1046.02 6.93741 1040.22 13.0851 1034.19 17.5408C1007.4 37.7323 995.682 4.11736 1013.53 4.90697L1013.64 4.90697C1018.36 4.90697 1022.15 7.89623 1022.15 11.6187C1022.15 13.8747 1020.69 15.9052 1018.52 17.146C1033.92 13.0287 1021.94 -1.97394 1007.94 2.42533C1002.25 4.23016 1000.46 11.3367 1002.41 17.71C1001.32 19.2892 1000.18 20.6428 999.045 21.5453C987.166 31.1334 975.233 26.6777 971.164 14.3259C971.11 14.1567 971.056 13.9311 971.002 13.7619C970.947 13.5363 970.893 13.3671 970.839 13.1415L970.947 13.0287L971.056 12.9159L971.164 12.7467L971.219 12.6903C973.605 9.98306 977.619 6.03499 981.85 1.80492L977.619 1.80492C972.683 7.38861 966.879 13.5363 960.858 17.992C934.062 38.1835 922.346 4.56856 940.192 5.35818L940.3 5.35818C945.019 5.35818 948.816 8.34743 948.816 12.0699C948.816 14.3259 947.352 16.3564 945.182 17.5972C960.587 13.4799 948.599 -1.52274 934.605 2.87653C928.855 4.68136 927.065 11.9571 929.126 18.3868C928.096 19.8532 927.011 21.1504 925.926 21.9965C914.047 31.5846 902.113 27.1289 898.045 14.7771C897.991 14.6079 897.936 14.3823 897.882 14.2131C897.828 13.9875 897.774 13.8183 897.719 13.5927L897.828 13.4799L897.936 13.3671L898.045 13.1979L898.099 13.1415C900.486 10.4343 904.5 6.48619 908.731 2.25612L904.5 2.25612C899.564 7.83982 893.76 13.9875 887.739 18.4432C860.943 38.6347 849.226 5.01976 867.072 5.80937L867.181 5.80937C871.9 5.80938 875.697 8.79863 875.697 12.5211C875.697 14.7771 874.232 16.8076 872.063 18.0484C887.468 13.9311 875.48 -1.07154 861.485 3.32773C855.79 5.13256 854 12.2955 855.952 18.6124C854.868 20.1916 853.783 21.5452 852.644 22.4477C840.764 32.0358 828.831 27.5801 824.763 15.2283C824.709 15.0591 824.654 14.8335 824.6 14.6643C824.546 14.4387 824.492 14.2695 824.437 14.0439L824.546 13.9311L824.654 13.8183L824.763 13.6491L824.817 13.5927C827.204 10.8855 831.218 6.93739 835.449 2.70732L831.218 2.70732C826.282 8.29101 820.478 14.4387 814.457 18.8944C787.661 39.0859 775.944 5.47096 793.79 6.26058L793.899 6.26058C798.618 6.26058 802.415 9.24983 802.415 12.9723C802.415 15.2283 800.95 17.2588 798.78 18.4996C814.185 14.3823 802.198 -0.620341 788.203 3.77893C782.453 5.58376 780.663 12.8595 782.724 19.2892C781.694 20.7556 780.609 22.0528 779.524 22.8989C767.645 32.487 755.711 28.0313 751.643 15.6795C751.589 15.5103 751.535 15.2847 751.481 15.1155C751.426 14.8899 751.372 14.7207 751.318 14.4951L751.426 14.3823L751.535 14.2695L751.643 14.1003L751.698 14.0439C754.084 11.3367 758.098 7.38859 762.329 3.15852L758.098 3.15852C753.162 8.74221 747.358 14.8899 741.337 19.3456C714.541 39.5371 702.825 5.92216 720.671 6.71177L720.779 6.71177C725.498 6.71177 729.295 9.70103 729.295 13.4235C729.295 15.6795 727.831 17.71 725.661 18.9508C741.066 14.8335 729.078 -0.169138 715.084 4.23014C709.334 6.03497 707.598 13.2543 709.605 19.6276C708.52 21.1504 707.435 22.4476 706.35 23.3501C694.471 32.9382 682.538 28.4825 678.47 16.1307C678.415 15.9615 678.361 15.7359 678.307 15.5667C678.253 15.3411 678.198 15.1719 678.144 14.9463L678.253 14.8335L678.361 14.7207L678.47 14.5515L678.524 14.4951C680.911 11.7879 684.925 7.83979 689.155 3.60972L684.924 3.60972C679.988 9.19341 674.184 15.3411 668.163 19.7968C641.367 39.9883 629.651 6.37336 647.497 7.16298L647.605 7.16298C652.325 7.16298 656.121 10.1522 656.121 13.8747C656.121 16.1307 654.657 18.1612 652.487 19.402C667.892 15.2847 655.905 0.282062 641.91 4.68133C636.16 6.48617 634.37 13.7619 636.431 20.1916C635.401 21.658 634.316 22.9552 633.231 23.8013C621.352 33.3894 609.418 28.9337 605.35 16.5819C605.296 16.4127 605.242 16.1871 605.187 16.0179C605.133 15.7923 605.079 15.6231 605.025 15.3975L605.133 15.2847L605.242 15.1719L605.35 15.0027L605.404 14.9463C607.791 12.2391 611.805 8.291 616.036 4.06092L611.805 4.06092C606.869 9.64462 601.065 15.7923 595.044 20.248C568.248 40.4395 556.531 6.82457 574.377 7.61418L574.486 7.61418C579.205 7.61418 583.002 10.6034 583.002 14.3259C583.002 16.5819 581.537 18.6124 579.368 19.8532C594.773 15.7359 582.785 0.733266 568.79 5.13254C563.041 6.93737 561.251 14.2131 563.312 20.6428C562.281 22.1092 561.196 23.4065 560.112 24.2525C548.232 33.8406 536.299 29.3849 532.231 17.0331C532.176 16.8639 532.122 16.6383 532.068 16.4691C532.014 16.2435 531.959 16.0743 531.905 15.8487L532.014 15.7359L532.122 15.6231L532.231 15.4539L532.285 15.3975C534.672 12.6903 538.686 8.7422 542.917 4.51213L538.686 4.51213C533.749 10.0958 527.945 16.2435 521.925 20.6992C495.128 40.8907 483.412 7.27576 501.258 8.06538L501.366 8.06538C506.086 8.06538 509.883 11.0546 509.883 14.7771C509.883 17.0331 508.418 19.0636 506.248 20.3044C521.653 16.1871 509.666 1.18446 495.671 5.58374C489.921 7.38857 488.131 14.6643 490.192 21.094C489.162 22.5604 488.077 23.8576 486.992 24.7037C475.113 34.2918 463.179 29.8361 459.111 17.4843C459.057 17.3151 459.003 17.0895 458.948 16.9203C458.894 16.6947 458.84 16.5255 458.786 16.2999L458.894 16.1871L459.003 16.0743L459.111 15.9051L459.165 15.8487C461.552 13.1415 465.566 9.1934 469.797 4.96332L465.566 4.96332C460.63 10.547 454.826 16.6947 448.805 21.1504C422.009 41.3419 410.292 7.72697 428.138 8.51659L428.247 8.51659C432.966 8.51659 436.763 11.5058 436.763 15.2283C436.763 17.4843 435.299 19.5148 433.129 20.7556C448.534 16.6383 436.546 1.63567 422.551 6.03494C416.802 7.83977 415.066 15.0591 417.073 21.4324C415.988 22.9552 414.903 24.2525 413.818 25.1549C401.939 34.743 390.006 30.2873 385.938 17.9355C385.883 17.7663 385.829 17.5407 385.775 17.3715C385.72 17.1459 385.666 16.9767 385.612 16.7511L385.72 16.6383L385.829 16.5255L385.938 16.3563L385.992 16.2999C388.378 13.5927 392.392 9.6446 396.623 5.41453L392.392 5.41453C387.456 10.9982 381.652 17.1459 375.631 21.6016C348.835 41.7931 337.119 8.17817 354.965 8.96778L355.073 8.96778C359.792 8.96778 363.589 11.957 363.589 15.6795C363.589 17.9355 362.125 19.966 359.955 21.2068C375.36 17.0895 363.372 2.08687 349.378 6.48614C343.628 8.29097 341.838 15.5667 343.899 21.9964C342.869 23.4628 341.784 24.7601 340.699 25.6061C328.82 35.1942 316.886 30.7386 312.818 18.3867C312.764 18.2175 312.71 17.9919 312.655 17.8227C312.601 17.5971 312.547 17.4279 312.493 17.2023L312.601 17.0895L312.709 16.9767L312.818 16.8075L312.872 16.7511C315.259 14.0439 319.273 10.0958 323.504 5.86573L319.273 5.86573C314.337 11.4494 308.533 17.5971 302.512 22.0528C275.716 42.2443 263.999 8.62937 281.845 9.41898L281.954 9.41898C286.673 9.41899 290.47 12.4082 290.47 16.1307C290.47 18.3867 289.005 20.4172 286.836 21.658C302.241 17.5407 290.253 2.53807 276.258 6.93734C270.454 8.74217 268.719 16.0743 270.834 22.504C269.803 23.9704 268.773 25.2113 267.688 26.0573C255.809 35.6454 243.875 31.1898 239.807 18.8379C239.753 18.6687 239.698 18.4431 239.644 18.2739C239.59 18.0483 239.536 17.8791 239.482 17.6535L239.59 17.5407L239.699 17.4279L239.807 17.2587L239.861 17.2023C242.248 14.4951 246.262 10.547 250.493 6.31693L246.262 6.31693C241.326 11.9006 235.522 18.0483 229.501 22.504C202.705 42.6955 190.988 9.08058 208.834 9.87019L208.943 9.87019C213.662 9.87019 217.459 12.8594 217.459 16.5819C217.459 18.8379 215.994 20.8684 213.825 22.1092C229.23 17.9919 217.242 2.98927 203.247 7.38854C197.498 9.19338 195.708 16.4691 197.769 22.8988C196.738 24.3652 195.653 25.6625 194.568 26.5085C182.689 36.0966 170.756 31.641 166.688 19.2891C166.633 19.1199 166.579 18.8943 166.525 18.7251C166.471 18.4995 166.416 18.3303 166.362 18.1047L166.471 17.9919L166.579 17.8791L166.688 17.7099L166.742 17.6535C169.129 14.9463 173.142 10.9982 177.373 6.76813L173.143 6.76813C168.206 12.3518 162.402 18.4995 156.381 22.9552C129.585 43.1467 117.869 9.53177 135.715 10.3214L135.823 10.3214C140.542 10.3214 144.339 13.3106 144.339 17.0331C144.339 19.2891 142.875 21.3196 140.705 22.5604C156.11 18.4431 144.123 3.44047 130.128 7.83974C124.378 9.64457 122.588 16.9203 124.649 23.2936C123.564 24.76 122.534 26.0573 121.449 26.9597C109.57 36.5478 97.6362 32.0922 93.568 19.7403C93.5138 19.5711 93.4597 19.3455 93.4054 19.1763C93.3512 18.9507 93.2969 18.7815 93.2427 18.5559L93.3511 18.4431L93.4596 18.3303L93.568 18.1611L93.6223 18.1047C96.009 15.3975 100.023 11.4494 104.254 7.21933L100.023 7.21933C95.0869 12.803 89.2828 18.9507 83.2618 23.4064C56.4658 43.5979 44.7495 9.98297 62.5955 10.7726L62.7039 10.7726C67.423 10.7726 71.2743 13.7618 71.2743 17.4843C71.2743 19.7403 69.8097 21.7708 67.64 23.0116C83.045 18.8943 71.0574 3.89167 57.0626 8.29095C51.3129 10.0958 49.5228 17.3715 51.5841 23.8012C50.5535 25.2676 49.4686 26.5649 48.3838 27.4109C36.5046 36.999 24.571 32.5434 20.5028 20.1915C20.4486 20.0223 20.3943 19.7967 20.3401 19.6275C20.2859 19.4019 20.2317 19.2327 20.1775 19.0071L20.2859 18.8943L20.3944 18.7815L20.5028 18.6123L20.5571 18.5559C22.9439 15.8487 26.9578 11.9006 31.1887 7.67053L26.9579 7.67053C22.0217 13.2542 16.2177 19.4019 10.1967 23.8576C-16.5994 44.0491 -28.3157 10.4342 -10.4697 11.2238L-10.3613 11.2238C-5.64221 11.2238 -1.79089 14.213 -1.79089 17.9355C-1.79089 20.1915 -3.25561 22.222 -5.42529 23.4628C9.97974 19.3455 -2.00805 4.34288 -16.0027 8.74215C-15.6772 2.53805 -17.63 8.79855 -16.2739 14.7771Z" fill="#603219"/>
</svg>
