<svg width="1440" height="62" viewBox="0 0 1440 62" fill="none" xmlns="http://www.w3.org/2000/svg">
<path fill-rule="evenodd" clip-rule="evenodd" d="M1476.22 47.4575V0H-11V47.1799C-10.8895 46.4584 -10.7238 45.7368 -10.4476 45.0707C-10.7238 46.4584 -10.779 48.0125 -10.558 49.7332C-8.56926 46.7359 -6.69097 43.9606 -4.70219 42.4064C7.39625 32.9705 19.5499 37.3554 23.6932 49.5112C23.7485 49.6777 23.8037 49.8997 23.859 50.0662C23.9142 50.2883 23.9694 50.4548 24.0247 50.6768L23.9142 50.7878L23.6932 51.0654L23.5827 51.2319L23.5275 51.2874C21.0968 53.9517 17.0087 57.8371 12.6997 62H17.0087C22.0359 56.5049 27.947 50.4548 34.0791 46.0698C61.3696 26.1987 73.3023 59.2802 55.1271 58.5031H55.0166C50.2103 58.5031 46.3433 55.5613 46.3433 51.8979C46.3433 49.6777 47.8349 47.6795 50.0446 46.4584C34.3553 50.5103 46.5642 65.2748 60.8172 60.9454C66.6731 59.1692 68.4961 52.009 66.3968 45.6813C67.4465 44.2381 68.5513 42.9615 69.6562 42.1289C81.7547 32.6929 93.9083 37.0779 98.0516 49.2337C98.1069 49.4002 98.1621 49.6222 98.2174 49.7887C98.2726 50.0107 98.3279 50.1773 98.3831 50.3993L98.2726 50.5103L97.8307 51.0654L97.7202 51.2319L97.6649 51.2874C95.2342 53.9517 91.1461 57.8371 86.8371 62H91.1461C96.1733 56.5049 102.084 50.4548 108.217 46.0698C135.507 26.1987 147.44 59.2802 129.264 58.5031H129.154C124.348 58.5031 120.481 55.5613 120.481 51.8979C120.481 49.6777 121.972 47.6795 124.182 46.4584C108.493 50.5103 120.702 65.2748 134.955 60.9454C140.7 59.2247 142.523 52.2865 140.645 46.1253C141.805 44.5157 143.02 43.0725 144.236 42.1289C156.334 32.6929 168.488 37.0779 172.631 49.2337C172.686 49.4002 172.742 49.6222 172.797 49.7887C172.852 50.0107 172.907 50.1773 172.962 50.3993L172.852 50.5103L172.41 51.0654L172.3 51.2319L172.244 51.2874C169.814 53.9517 165.726 57.8371 161.417 62H165.726C170.753 56.5049 176.664 50.4548 182.796 46.0698C210.086 26.1987 222.019 59.2802 203.844 58.5031H203.733C198.927 58.5031 195.06 55.5613 195.06 51.8979C195.06 49.6777 196.552 47.6795 198.761 46.4584C183.072 50.5103 195.281 65.2748 209.534 60.9454C215.39 59.1692 217.213 52.009 215.114 45.6813C216.163 44.2381 217.268 42.9615 218.373 42.1289C230.471 32.6929 242.625 37.0779 246.768 49.2337C246.824 49.4002 246.879 49.6222 246.934 49.7887C246.989 50.0107 247.045 50.1773 247.1 50.3993L246.989 50.5103L246.879 50.6213L246.768 50.7878L246.713 50.8433C244.282 53.5076 240.194 57.393 235.885 61.556H240.194C245.222 56.0609 251.133 50.0107 257.265 45.6258C284.555 25.7547 296.488 58.8362 278.313 58.0591H278.202C273.396 58.0591 269.529 55.1173 269.529 51.4539C269.529 49.2337 271.021 47.2355 273.23 46.0143C257.541 50.0662 269.75 64.8308 284.003 60.5013C289.804 58.7252 291.627 51.6759 289.638 45.4593C290.743 43.9051 291.848 42.573 293.008 41.6849C305.106 32.2489 317.26 36.6338 321.403 48.7896C321.458 48.9561 321.514 49.1782 321.569 49.3447C321.624 49.5667 321.679 49.7332 321.735 49.9552L321.624 50.0662L321.514 50.1773L321.403 50.3438L321.348 50.3993C318.917 53.0636 314.829 56.949 310.52 61.1119H314.829C319.856 55.6168 325.767 49.5667 331.899 45.1817C359.19 25.3107 371.123 58.3921 352.947 57.615H352.837C348.031 57.615 344.164 54.6732 344.164 51.0098C344.164 48.7896 345.655 46.7914 347.865 45.5703C332.176 49.6222 344.385 64.3867 358.638 60.0573C364.493 58.2811 366.316 51.1209 364.217 44.7932C365.267 43.35 366.372 42.0734 367.477 41.2408C379.575 31.8048 391.729 36.1898 395.872 48.3456C395.927 48.5121 395.982 48.7341 396.038 48.9006C396.093 49.1226 396.148 49.2892 396.203 49.5112L396.093 49.6222L395.983 49.7332L395.872 49.8997L395.817 49.9552C393.386 52.6195 389.298 56.5049 384.989 60.6679H389.298C394.325 55.1728 400.236 49.1227 406.368 44.7377C433.659 24.8666 445.592 57.9481 427.416 57.171H427.306C422.5 57.171 418.633 54.2292 418.633 50.5658C418.633 48.3456 420.124 46.3474 422.334 45.1262C406.645 49.1782 418.854 63.9427 433.106 59.6133C438.907 57.8371 440.73 50.8433 438.741 44.5712C439.846 43.017 441.006 41.6849 442.166 40.7968C454.265 31.3608 466.419 35.7458 470.562 47.9015C470.617 48.068 470.672 48.2901 470.728 48.4566C470.783 48.6786 470.838 48.8451 470.893 49.0671L470.783 49.1782L470.672 49.2892L470.562 49.4557L470.507 49.5112C468.076 52.1755 463.988 56.0609 459.679 60.2238H463.988C469.015 54.7287 474.926 48.6786 481.058 44.2936C508.349 24.4226 520.281 57.504 502.106 56.7269H501.996C497.189 56.7269 493.322 53.7851 493.322 50.1218C493.322 47.9015 494.814 45.9033 497.024 44.6822C481.334 48.7341 493.543 63.4987 507.796 59.1692C513.652 57.393 515.475 50.2328 513.376 43.9051C514.426 42.4619 515.53 41.1853 516.635 40.3527C528.734 30.9167 540.888 35.3017 545.031 47.4575C545.086 47.624 545.141 47.846 545.197 48.0125C545.252 48.2346 545.307 48.4011 545.362 48.6231L545.252 48.7341L545.141 48.8451L545.031 49.0116L544.976 49.0671C542.545 51.7314 538.457 55.6168 534.148 59.7798H538.457C543.484 54.2847 549.395 48.2346 555.527 43.8496C582.818 23.9785 594.75 57.06 576.575 56.2829H576.465C571.658 56.2829 567.791 53.3411 567.791 49.6777C567.791 47.4575 569.283 45.4593 571.493 44.2381C555.803 48.2901 568.012 63.0546 582.265 58.7252C588.066 56.949 589.889 49.8997 587.9 43.6831C589.005 42.1289 590.11 40.7968 591.27 39.9087C603.368 30.4727 615.522 34.8577 619.665 47.0134C619.721 47.1799 619.776 47.402 619.831 47.5685C619.886 47.7905 619.942 47.957 619.997 48.1791L619.886 48.2901L619.776 48.4011L619.665 48.5676L619.61 48.6231C617.179 51.2874 613.091 55.1728 608.782 59.3357H613.091C618.119 53.8406 624.03 47.7905 630.162 43.4055C657.452 23.5345 669.385 56.6159 651.21 55.8389H651.099C646.293 55.8389 642.426 52.897 642.426 49.2337C642.426 47.0134 643.918 45.0152 646.127 43.7941C630.438 47.846 642.647 62.6106 656.9 58.2811C662.756 56.5049 664.579 49.3447 662.479 43.017C663.529 41.5739 664.634 40.2972 665.739 39.4646C677.837 30.0286 689.991 34.4136 694.134 46.5694C694.19 46.7359 694.245 46.9579 694.3 47.1244C694.355 47.3465 694.411 47.513 694.466 47.735L694.355 47.846L694.245 47.957L694.134 48.1235L694.079 48.1791C691.648 50.8433 687.56 54.7287 683.251 58.8917H687.56C692.587 53.3966 698.499 47.3465 704.631 42.9615C731.921 23.0904 743.854 56.1719 725.679 55.3948H725.568C720.762 55.3948 716.895 52.453 716.895 48.7896C716.895 46.5694 718.386 44.5712 720.596 43.35C704.907 47.402 717.116 62.1665 731.369 57.8371C737.225 56.0609 738.992 48.9561 736.948 42.684C738.053 41.1853 739.158 39.9087 740.263 39.0206C752.362 29.5846 764.515 33.9696 768.659 46.1253C768.714 46.2919 768.769 46.5139 768.824 46.6804C768.879 46.9024 768.935 47.0689 768.99 47.291L768.879 47.402L768.769 47.513L768.659 47.6795L768.603 47.735C766.172 50.3993 762.084 54.2847 757.775 58.4476H762.084C767.112 52.9526 773.023 46.9024 779.155 42.5175C806.445 22.6464 818.378 55.7278 800.203 54.9508H800.092C795.286 54.9508 791.419 52.0089 791.419 48.3456C791.419 46.1253 792.911 44.1271 795.12 42.906C779.431 46.9579 791.64 61.7225 805.893 57.393C811.749 55.6168 813.572 48.4566 811.473 42.1289C812.522 40.6858 813.627 39.4091 814.732 38.5765C826.83 29.1406 838.984 33.5255 843.127 45.6813C843.183 45.8478 843.238 46.0698 843.293 46.2363C843.348 46.4584 843.404 46.6249 843.459 46.8469L843.348 46.9579L843.238 47.0689L843.127 47.2355L843.072 47.291C840.641 49.9552 836.553 53.8406 832.244 58.0036H836.553C841.581 52.5085 847.492 46.4584 853.624 42.0734C880.914 22.2023 892.847 55.2838 874.672 54.5067H874.561C869.755 54.5067 865.888 51.5649 865.888 47.9015C865.888 45.6813 867.379 43.6831 869.589 42.462C853.9 46.5139 866.109 61.2784 880.362 56.949C886.218 55.1728 888.041 48.0125 885.941 41.6849C886.991 40.2417 888.096 38.9651 889.201 38.1325C901.299 28.6965 913.453 33.0815 917.596 45.2372C917.652 45.4038 917.707 45.6258 917.762 45.7923C917.817 46.0143 917.872 46.1808 917.928 46.4029L917.817 46.5139L917.707 46.6249L917.596 46.7914L917.541 46.8469C915.11 49.5112 911.022 53.3966 906.713 57.5595H911.022C916.049 52.0645 921.961 46.0143 928.093 41.6294C955.383 21.7583 967.316 54.8397 949.141 54.0627H949.03C944.224 54.0627 940.357 51.1209 940.357 47.4575C940.357 45.2372 941.848 43.239 944.058 42.0179C928.369 46.0698 940.578 60.8344 954.831 56.5049C960.687 54.7287 962.51 47.5685 960.41 41.2408C961.46 39.7977 962.565 38.521 963.67 37.6884C975.768 28.2525 987.922 32.6374 992.065 44.7932C992.12 44.9597 992.176 45.1817 992.231 45.3483C992.286 45.5703 992.341 45.7368 992.397 45.9588L992.286 46.0698L992.176 46.1808L992.065 46.3474L992.01 46.4029C989.579 49.0671 985.491 52.9526 981.182 57.1155H985.491C990.518 51.6204 996.429 45.5703 1002.56 41.1853C1029.85 21.3142 1041.78 54.3957 1023.61 53.6186H1023.5C1018.69 53.6186 1014.83 50.6768 1014.83 47.0134C1014.83 44.7932 1016.32 42.795 1018.53 41.5739C1002.84 45.6258 1015.05 60.3903 1029.3 56.0609C1035.16 54.2847 1036.92 47.1799 1034.88 40.9078C1035.98 39.4091 1037.09 38.1325 1038.19 37.2444C1050.29 27.8084 1062.45 32.1934 1066.59 44.3491C1066.64 44.5157 1066.7 44.7377 1066.76 44.9042C1066.81 45.1262 1066.87 45.2927 1066.92 45.5148L1066.81 45.6258L1066.7 45.7368L1066.59 45.9033L1066.53 45.9588C1064.1 48.6231 1060.02 52.5085 1055.71 56.6714H1060.02C1065.04 51.1764 1070.95 45.1262 1077.09 40.7413C1104.38 20.8702 1116.31 53.9517 1098.13 53.1746H1098.02C1093.22 53.1746 1089.35 50.2328 1089.35 46.5694C1089.35 44.3491 1090.84 42.3509 1093.05 41.1298C1077.36 45.1817 1089.57 59.9463 1103.82 55.6168C1109.68 53.8406 1111.5 46.6804 1109.4 40.3527C1110.45 38.9096 1111.56 37.6329 1112.66 36.8004C1124.76 27.3644 1136.91 31.7493 1141.06 43.9051C1141.11 44.0716 1141.17 44.2936 1141.22 44.4602C1141.28 44.6822 1141.33 44.8487 1141.39 45.0707L1141.28 45.1817L1141.17 45.2927L1141.06 45.4593L1141 45.5148C1138.57 48.1791 1134.48 52.0645 1130.18 56.2274H1134.48C1139.51 50.7323 1145.42 44.6822 1151.55 40.2972C1178.85 20.4261 1190.78 53.5076 1172.6 52.7305H1172.49C1167.69 52.7305 1163.82 49.7887 1163.82 46.1253C1163.82 43.9051 1165.31 41.9069 1167.52 40.6858C1151.83 44.7377 1164.04 59.5022 1178.29 55.1728C1184.2 53.3966 1185.97 46.1808 1183.82 39.8532C1184.87 38.41 1185.92 37.1889 1187.02 36.3563C1199.12 26.9203 1211.27 31.3053 1215.42 43.4611C1215.47 43.6276 1215.53 43.8496 1215.58 44.0161C1215.64 44.2381 1215.69 44.4047 1215.75 44.6267L1215.64 44.7377L1215.53 44.8487L1215.42 45.0152L1215.36 45.0707C1212.93 47.735 1208.84 51.6204 1204.53 55.7833H1208.84C1213.87 50.2883 1219.78 44.2381 1225.91 39.8532C1253.2 19.9821 1265.14 53.0636 1246.96 52.2865H1246.85C1242.04 52.2865 1238.18 49.3447 1238.18 45.6813C1238.18 43.4611 1239.67 41.4628 1241.88 40.2417C1226.19 44.2936 1238.4 59.0582 1252.65 54.7287C1258.51 52.9525 1260.33 45.7923 1258.23 39.4646C1259.28 38.0215 1260.39 36.7449 1261.49 35.9123C1273.59 26.4763 1285.74 30.8612 1289.89 43.017C1289.94 43.1835 1290 43.4055 1290.05 43.5721C1290.11 43.7941 1290.16 43.9606 1290.22 44.1826L1290.11 44.2936L1290 44.4047L1289.89 44.5712L1289.83 44.6267C1287.4 47.291 1283.31 51.1764 1279 55.3393H1283.31C1288.34 49.8442 1294.25 43.7941 1300.38 39.4091C1327.67 19.538 1339.61 52.6195 1321.43 51.8424H1321.32C1316.51 51.8424 1312.65 48.9006 1312.65 45.2372C1312.65 43.017 1314.14 41.0188 1316.35 39.7977C1300.66 43.8496 1312.87 58.6141 1327.12 54.2847C1332.98 52.5085 1334.8 45.3483 1332.7 39.0761C1333.8 37.6329 1334.85 36.3563 1335.96 35.4682C1348.06 26.0322 1360.21 30.4172 1364.35 42.573C1364.41 42.7395 1364.46 42.9615 1364.52 43.128C1364.58 43.35 1364.63 43.5166 1364.69 43.7386L1364.58 43.8496L1364.46 43.9606L1364.35 44.1271L1364.3 44.1826C1361.87 46.8469 1357.78 50.7323 1353.47 54.8953H1357.78C1362.81 49.4002 1368.72 43.35 1374.85 38.9651C1402.14 19.094 1414.07 52.1755 1395.9 51.3984H1395.79C1390.98 51.3984 1387.06 48.4566 1387.06 44.7932C1387.06 42.573 1388.55 40.5748 1390.76 39.3536C1375.07 43.4056 1387.28 58.1701 1401.53 53.8406C1407.39 52.0645 1409.21 44.9042 1407.11 38.5765C1408.16 37.1334 1409.27 35.8568 1410.37 35.0242C1422.47 25.5882 1434.62 29.9731 1438.77 42.1289C1438.82 42.2954 1438.88 42.5175 1438.93 42.684C1438.99 42.906 1439.04 43.0725 1439.1 43.2945L1438.99 43.4055L1438.88 43.5166L1438.77 43.6831L1438.71 43.7386C1436.28 46.4029 1432.19 50.2883 1427.89 54.4512H1432.19C1437.22 48.9561 1443.13 42.906 1449.26 38.521C1476.56 18.65 1488.49 51.7314 1470.31 50.9543H1470.2C1465.4 50.9543 1461.47 48.0125 1461.47 44.3491C1461.47 42.1289 1462.96 40.1307 1465.17 38.9096C1449.49 42.9615 1461.69 57.726 1475.95 53.3966C1475.62 59.5022 1477.6 53.3411 1476.22 47.4575Z" fill="#FFF9F1"/>
</svg>
